<svg width="111" height="39" viewBox="0 0 111 39" fill="none" xmlns="http://www.w3.org/2000/svg">
<path d="M14.205 36H12.585V34.95H12.555C12.325 35.4 11.99 35.725 11.55 35.925C11.11 36.115 10.645 36.21 10.155 36.21C9.545 36.21 9.01 36.105 8.55 35.895C8.1 35.675 7.725 35.38 7.425 35.01C7.125 34.64 6.9 34.205 6.75 33.705C6.6 33.195 6.525 32.65 6.525 32.07C6.525 31.37 6.62 30.765 6.81 30.255C7 29.745 7.25 29.325 7.56 28.995C7.88 28.665 8.24 28.425 8.64 28.275C9.05 28.115 9.465 28.035 9.885 28.035C10.125 28.035 10.37 28.06 10.62 28.11C10.87 28.15 11.11 28.22 11.34 28.32C11.57 28.42 11.78 28.55 11.97 28.71C12.17 28.86 12.335 29.04 12.465 29.25H12.495V25.29H14.205V36ZM8.235 32.205C8.235 32.535 8.275 32.86 8.355 33.18C8.445 33.5 8.575 33.785 8.745 34.035C8.925 34.285 9.15 34.485 9.42 34.635C9.69 34.785 10.01 34.86 10.38 34.86C10.76 34.86 11.085 34.78 11.355 34.62C11.635 34.46 11.86 34.25 12.03 33.99C12.21 33.73 12.34 33.44 12.42 33.12C12.51 32.79 12.555 32.455 12.555 32.115C12.555 31.255 12.36 30.585 11.97 30.105C11.59 29.625 11.07 29.385 10.41 29.385C10.01 29.385 9.67 29.47 9.39 29.64C9.12 29.8 8.895 30.015 8.715 30.285C8.545 30.545 8.42 30.845 8.34 31.185C8.27 31.515 8.235 31.855 8.235 32.205ZM22.7149 34.275C22.7149 34.485 22.7399 34.635 22.7899 34.725C22.8499 34.815 22.9599 34.86 23.1199 34.86C23.1699 34.86 23.2299 34.86 23.2999 34.86C23.3699 34.86 23.4499 34.85 23.5399 34.83V36.015C23.4799 36.035 23.3999 36.055 23.2999 36.075C23.2099 36.105 23.1149 36.13 23.0149 36.15C22.9149 36.17 22.8149 36.185 22.7149 36.195C22.6149 36.205 22.5299 36.21 22.4599 36.21C22.1099 36.21 21.8199 36.14 21.5899 36C21.3599 35.86 21.2099 35.615 21.1399 35.265C20.7999 35.595 20.3799 35.835 19.8799 35.985C19.3899 36.135 18.9149 36.21 18.4549 36.21C18.1049 36.21 17.7699 36.16 17.4499 36.06C17.1299 35.97 16.8449 35.835 16.5949 35.655C16.3549 35.465 16.1599 35.23 16.0099 34.95C15.8699 34.66 15.7999 34.325 15.7999 33.945C15.7999 33.465 15.8849 33.075 16.0549 32.775C16.2349 32.475 16.4649 32.24 16.7449 32.07C17.0349 31.9 17.3549 31.78 17.7049 31.71C18.0649 31.63 18.4249 31.57 18.7849 31.53C19.0949 31.47 19.3899 31.43 19.6699 31.41C19.9499 31.38 20.1949 31.335 20.4049 31.275C20.6249 31.215 20.7949 31.125 20.9149 31.005C21.0449 30.875 21.1099 30.685 21.1099 30.435C21.1099 30.215 21.0549 30.035 20.9449 29.895C20.8449 29.755 20.7149 29.65 20.5549 29.58C20.4049 29.5 20.2349 29.45 20.0449 29.43C19.8549 29.4 19.6749 29.385 19.5049 29.385C19.0249 29.385 18.6299 29.485 18.3199 29.685C18.0099 29.885 17.8349 30.195 17.7949 30.615H16.0849C16.1149 30.115 16.2349 29.7 16.4449 29.37C16.6549 29.04 16.9199 28.775 17.2399 28.575C17.5699 28.375 17.9399 28.235 18.3499 28.155C18.7599 28.075 19.1799 28.035 19.6099 28.035C19.9899 28.035 20.3649 28.075 20.7349 28.155C21.1049 28.235 21.4349 28.365 21.7249 28.545C22.0249 28.725 22.2649 28.96 22.4449 29.25C22.6249 29.53 22.7149 29.875 22.7149 30.285V34.275ZM21.0049 32.115C20.7449 32.285 20.4249 32.39 20.0449 32.43C19.6649 32.46 19.2849 32.51 18.9049 32.58C18.7249 32.61 18.5499 32.655 18.3799 32.715C18.2099 32.765 18.0599 32.84 17.9299 32.94C17.7999 33.03 17.6949 33.155 17.6149 33.315C17.5449 33.465 17.5099 33.65 17.5099 33.87C17.5099 34.06 17.5649 34.22 17.6749 34.35C17.7849 34.48 17.9149 34.585 18.0649 34.665C18.2249 34.735 18.3949 34.785 18.5749 34.815C18.7649 34.845 18.9349 34.86 19.0849 34.86C19.2749 34.86 19.4799 34.835 19.6999 34.785C19.9199 34.735 20.1249 34.65 20.3149 34.53C20.5149 34.41 20.6799 34.26 20.8099 34.08C20.9399 33.89 21.0049 33.66 21.0049 33.39V32.115ZM25.9949 33.51C26.0449 34.01 26.2349 34.36 26.5649 34.56C26.8949 34.76 27.2899 34.86 27.7499 34.86C27.9099 34.86 28.0899 34.85 28.2899 34.83C28.4999 34.8 28.6949 34.75 28.8749 34.68C29.0549 34.61 29.1999 34.51 29.3099 34.38C29.4299 34.24 29.4849 34.06 29.4749 33.84C29.4649 33.62 29.3849 33.44 29.2349 33.3C29.0849 33.16 28.8899 33.05 28.6499 32.97C28.4199 32.88 28.1549 32.805 27.8549 32.745C27.5549 32.685 27.2499 32.62 26.9399 32.55C26.6199 32.48 26.3099 32.395 26.0099 32.295C25.7199 32.195 25.4549 32.06 25.2149 31.89C24.9849 31.72 24.7999 31.505 24.6599 31.245C24.5199 30.975 24.4499 30.645 24.4499 30.255C24.4499 29.835 24.5499 29.485 24.7499 29.205C24.9599 28.915 25.2199 28.685 25.5299 28.515C25.8499 28.335 26.1999 28.21 26.5799 28.14C26.9699 28.07 27.3399 28.035 27.6899 28.035C28.0899 28.035 28.4699 28.08 28.8299 28.17C29.1999 28.25 29.5299 28.385 29.8199 28.575C30.1199 28.765 30.3649 29.015 30.5549 29.325C30.7549 29.625 30.8799 29.99 30.9299 30.42H29.1449C29.0649 30.01 28.8749 29.735 28.5749 29.595C28.2849 29.455 27.9499 29.385 27.5699 29.385C27.4499 29.385 27.3049 29.395 27.1349 29.415C26.9749 29.435 26.8199 29.475 26.6699 29.535C26.5299 29.585 26.4099 29.665 26.3099 29.775C26.2099 29.875 26.1599 30.01 26.1599 30.18C26.1599 30.39 26.2299 30.56 26.3699 30.69C26.5199 30.82 26.7099 30.93 26.9399 31.02C27.1799 31.1 27.4499 31.17 27.7499 31.23C28.0499 31.29 28.3599 31.355 28.6799 31.425C28.9899 31.495 29.2949 31.58 29.5949 31.68C29.8949 31.78 30.1599 31.915 30.3899 32.085C30.6299 32.255 30.8199 32.47 30.9599 32.73C31.1099 32.99 31.1849 33.31 31.1849 33.69C31.1849 34.15 31.0799 34.54 30.8699 34.86C30.6599 35.18 30.3849 35.44 30.0449 35.64C29.7149 35.84 29.3449 35.985 28.9349 36.075C28.5249 36.165 28.1199 36.21 27.7199 36.21C27.2299 36.21 26.7749 36.155 26.3549 36.045C25.9449 35.935 25.5849 35.77 25.2749 35.55C24.9749 35.32 24.7349 35.04 24.5549 34.71C24.3849 34.37 24.2949 33.97 24.2849 33.51H25.9949ZM32.6332 25.29H34.3432V29.265H34.3732C34.5832 28.915 34.8932 28.625 35.3032 28.395C35.7232 28.155 36.1882 28.035 36.6982 28.035C37.5482 28.035 38.2182 28.255 38.7082 28.695C39.1982 29.135 39.4432 29.795 39.4432 30.675V36H37.7332V31.125C37.7132 30.515 37.5832 30.075 37.3432 29.805C37.1032 29.525 36.7282 29.385 36.2182 29.385C35.9282 29.385 35.6682 29.44 35.4382 29.55C35.2082 29.65 35.0132 29.795 34.8532 29.985C34.6932 30.165 34.5682 30.38 34.4782 30.63C34.3882 30.88 34.3432 31.145 34.3432 31.425V36H32.6332V25.29ZM41.4415 25.29H43.1515V29.25H43.1815C43.3015 29.06 43.4465 28.89 43.6165 28.74C43.7865 28.59 43.9715 28.465 44.1715 28.365C44.3815 28.255 44.5965 28.175 44.8165 28.125C45.0465 28.065 45.2715 28.035 45.4915 28.035C46.1015 28.035 46.6315 28.145 47.0815 28.365C47.5415 28.575 47.9215 28.87 48.2215 29.25C48.5215 29.62 48.7465 30.055 48.8965 30.555C49.0465 31.055 49.1215 31.59 49.1215 32.16C49.1215 32.68 49.0515 33.185 48.9115 33.675C48.7815 34.165 48.5765 34.6 48.2965 34.98C48.0265 35.35 47.6815 35.65 47.2615 35.88C46.8415 36.1 46.3465 36.21 45.7765 36.21C45.5165 36.21 45.2515 36.19 44.9815 36.15C44.7215 36.12 44.4715 36.055 44.2315 35.955C43.9915 35.855 43.7715 35.725 43.5715 35.565C43.3815 35.405 43.2215 35.195 43.0915 34.935H43.0615V36H41.4415V25.29ZM47.4115 32.13C47.4115 31.78 47.3665 31.44 47.2765 31.11C47.1865 30.78 47.0515 30.49 46.8715 30.24C46.6915 29.98 46.4665 29.775 46.1965 29.625C45.9265 29.465 45.6165 29.385 45.2665 29.385C44.5465 29.385 44.0015 29.635 43.6315 30.135C43.2715 30.635 43.0915 31.3 43.0915 32.13C43.0915 32.52 43.1365 32.885 43.2265 33.225C43.3265 33.555 43.4715 33.84 43.6615 34.08C43.8515 34.32 44.0765 34.51 44.3365 34.65C44.6065 34.79 44.9165 34.86 45.2665 34.86C45.6565 34.86 45.9865 34.78 46.2565 34.62C46.5265 34.46 46.7465 34.255 46.9165 34.005C47.0965 33.745 47.2215 33.455 47.2915 33.135C47.3715 32.805 47.4115 32.47 47.4115 32.13ZM54.2714 36.21C53.6514 36.21 53.0964 36.11 52.6064 35.91C52.1264 35.7 51.7164 35.415 51.3764 35.055C51.0464 34.695 50.7914 34.265 50.6114 33.765C50.4414 33.265 50.3564 32.715 50.3564 32.115C50.3564 31.525 50.4414 30.98 50.6114 30.48C50.7914 29.98 51.0464 29.55 51.3764 29.19C51.7164 28.83 52.1264 28.55 52.6064 28.35C53.0964 28.14 53.6514 28.035 54.2714 28.035C54.8914 28.035 55.4414 28.14 55.9214 28.35C56.4114 28.55 56.8214 28.83 57.1514 29.19C57.4914 29.55 57.7464 29.98 57.9164 30.48C58.0964 30.98 58.1864 31.525 58.1864 32.115C58.1864 32.715 58.0964 33.265 57.9164 33.765C57.7464 34.265 57.4914 34.695 57.1514 35.055C56.8214 35.415 56.4114 35.7 55.9214 35.91C55.4414 36.11 54.8914 36.21 54.2714 36.21ZM54.2714 34.86C54.6514 34.86 54.9814 34.78 55.2614 34.62C55.5414 34.46 55.7714 34.25 55.9514 33.99C56.1314 33.73 56.2614 33.44 56.3414 33.12C56.4314 32.79 56.4764 32.455 56.4764 32.115C56.4764 31.785 56.4314 31.455 56.3414 31.125C56.2614 30.795 56.1314 30.505 55.9514 30.255C55.7714 29.995 55.5414 29.785 55.2614 29.625C54.9814 29.465 54.6514 29.385 54.2714 29.385C53.8914 29.385 53.5614 29.465 53.2814 29.625C53.0014 29.785 52.7714 29.995 52.5914 30.255C52.4114 30.505 52.2764 30.795 52.1864 31.125C52.1064 31.455 52.0664 31.785 52.0664 32.115C52.0664 32.455 52.1064 32.79 52.1864 33.12C52.2764 33.44 52.4114 33.73 52.5914 33.99C52.7714 34.25 53.0014 34.46 53.2814 34.62C53.5614 34.78 53.8914 34.86 54.2714 34.86ZM66.253 34.275C66.253 34.485 66.278 34.635 66.328 34.725C66.388 34.815 66.498 34.86 66.658 34.86C66.708 34.86 66.768 34.86 66.838 34.86C66.908 34.86 66.988 34.85 67.078 34.83V36.015C67.018 36.035 66.938 36.055 66.838 36.075C66.748 36.105 66.653 36.13 66.553 36.15C66.453 36.17 66.353 36.185 66.253 36.195C66.153 36.205 66.068 36.21 65.998 36.21C65.648 36.21 65.358 36.14 65.128 36C64.898 35.86 64.748 35.615 64.678 35.265C64.338 35.595 63.918 35.835 63.418 35.985C62.928 36.135 62.453 36.21 61.993 36.21C61.643 36.21 61.308 36.16 60.988 36.06C60.668 35.97 60.383 35.835 60.133 35.655C59.893 35.465 59.698 35.23 59.548 34.95C59.408 34.66 59.338 34.325 59.338 33.945C59.338 33.465 59.423 33.075 59.593 32.775C59.773 32.475 60.003 32.24 60.283 32.07C60.573 31.9 60.893 31.78 61.243 31.71C61.603 31.63 61.963 31.57 62.323 31.53C62.633 31.47 62.928 31.43 63.208 31.41C63.488 31.38 63.733 31.335 63.943 31.275C64.163 31.215 64.333 31.125 64.453 31.005C64.583 30.875 64.648 30.685 64.648 30.435C64.648 30.215 64.593 30.035 64.483 29.895C64.383 29.755 64.253 29.65 64.093 29.58C63.943 29.5 63.773 29.45 63.583 29.43C63.393 29.4 63.213 29.385 63.043 29.385C62.563 29.385 62.168 29.485 61.858 29.685C61.548 29.885 61.373 30.195 61.333 30.615H59.623C59.653 30.115 59.773 29.7 59.983 29.37C60.193 29.04 60.458 28.775 60.778 28.575C61.108 28.375 61.478 28.235 61.888 28.155C62.298 28.075 62.718 28.035 63.148 28.035C63.528 28.035 63.903 28.075 64.273 28.155C64.643 28.235 64.973 28.365 65.263 28.545C65.563 28.725 65.803 28.96 65.983 29.25C66.163 29.53 66.253 29.875 66.253 30.285V34.275ZM64.543 32.115C64.283 32.285 63.963 32.39 63.583 32.43C63.203 32.46 62.823 32.51 62.443 32.58C62.263 32.61 62.088 32.655 61.918 32.715C61.748 32.765 61.598 32.84 61.468 32.94C61.338 33.03 61.233 33.155 61.153 33.315C61.083 33.465 61.048 33.65 61.048 33.87C61.048 34.06 61.103 34.22 61.213 34.35C61.323 34.48 61.453 34.585 61.603 34.665C61.763 34.735 61.933 34.785 62.113 34.815C62.303 34.845 62.473 34.86 62.623 34.86C62.813 34.86 63.018 34.835 63.238 34.785C63.458 34.735 63.663 34.65 63.853 34.53C64.053 34.41 64.218 34.26 64.348 34.08C64.478 33.89 64.543 33.66 64.543 33.39V32.115ZM68.243 28.245H69.848V29.745H69.878C69.928 29.535 70.023 29.33 70.163 29.13C70.313 28.93 70.488 28.75 70.688 28.59C70.898 28.42 71.128 28.285 71.378 28.185C71.628 28.085 71.883 28.035 72.143 28.035C72.343 28.035 72.478 28.04 72.548 28.05C72.628 28.06 72.708 28.07 72.788 28.08V29.73C72.668 29.71 72.543 29.695 72.413 29.685C72.293 29.665 72.173 29.655 72.053 29.655C71.763 29.655 71.488 29.715 71.228 29.835C70.978 29.945 70.758 30.115 70.568 30.345C70.378 30.565 70.228 30.84 70.118 31.17C70.008 31.5 69.953 31.88 69.953 32.31V36H68.243V28.245ZM80.7077 36H79.0877V34.95H79.0577C78.8277 35.4 78.4927 35.725 78.0527 35.925C77.6127 36.115 77.1477 36.21 76.6577 36.21C76.0477 36.21 75.5127 36.105 75.0527 35.895C74.6027 35.675 74.2277 35.38 73.9277 35.01C73.6277 34.64 73.4027 34.205 73.2527 33.705C73.1027 33.195 73.0277 32.65 73.0277 32.07C73.0277 31.37 73.1227 30.765 73.3127 30.255C73.5027 29.745 73.7527 29.325 74.0627 28.995C74.3827 28.665 74.7427 28.425 75.1427 28.275C75.5527 28.115 75.9677 28.035 76.3877 28.035C76.6277 28.035 76.8727 28.06 77.1227 28.11C77.3727 28.15 77.6127 28.22 77.8427 28.32C78.0727 28.42 78.2827 28.55 78.4727 28.71C78.6727 28.86 78.8377 29.04 78.9677 29.25H78.9977V25.29H80.7077V36ZM74.7377 32.205C74.7377 32.535 74.7777 32.86 74.8577 33.18C74.9477 33.5 75.0777 33.785 75.2477 34.035C75.4277 34.285 75.6527 34.485 75.9227 34.635C76.1927 34.785 76.5127 34.86 76.8827 34.86C77.2627 34.86 77.5877 34.78 77.8577 34.62C78.1377 34.46 78.3627 34.25 78.5327 33.99C78.7127 33.73 78.8427 33.44 78.9227 33.12C79.0127 32.79 79.0577 32.455 79.0577 32.115C79.0577 31.255 78.8627 30.585 78.4727 30.105C78.0927 29.625 77.5727 29.385 76.9127 29.385C76.5127 29.385 76.1727 29.47 75.8927 29.64C75.6227 29.8 75.3977 30.015 75.2177 30.285C75.0477 30.545 74.9227 30.845 74.8427 31.185C74.7727 31.515 74.7377 31.855 74.7377 32.205ZM86.2675 25.29H94.9375V26.91H91.5325V36H89.6575V26.91H86.2675V25.29ZM95.1141 25.29H97.0641L99.7491 33.765H99.7791L102.524 25.29H104.429L100.769 36H98.6841L95.1141 25.29Z" fill="#F58220"/>
<g clip-path="url(#clip0_145_1331)">
<path d="M1.83127 9.18289V20.3297H5.65305V9.18289H8.67863V6.44925H5.65305V4.75069C5.65305 3.68908 6.13077 2.91942 7.37816 2.91942C7.9355 2.91942 8.38668 3.02558 8.78479 3.15828V0.265401C8.17436 0.079621 7.61702 0 6.79428 0C3.68908 0 1.83127 1.59241 1.83127 4.85685V6.44925H0V9.18289H1.83127Z" fill="#0D82AE"/>
<path d="M11.6196 6.44924V20.3297H15.4679V13.3762C15.4679 10.7222 17.0869 9.7933 19.9532 9.81984V6.23692C17.6973 6.26346 16.3437 7.21891 15.4679 9.10326V6.44924H11.6196Z" fill="#0D82AE"/>
<path d="M29.1927 20.6217C33.0145 20.6217 35.3765 18.9497 35.8277 15.9506H32.1917C31.9529 17.1184 31.1036 17.8881 29.2989 17.8881C27.1756 17.8881 25.9548 16.5876 25.8486 14.2521H35.8543V13.1904C35.8543 10.7222 35.0581 8.94403 33.8107 7.8028C32.5633 6.66157 30.8913 6.13077 29.0865 6.13077C27.0695 6.13077 25.2913 6.84736 24.0174 8.09474C22.7169 9.36867 21.9472 11.1469 21.9472 13.3497V13.562C21.9472 15.7914 22.7169 17.543 24.0174 18.7373C25.2913 19.9847 27.096 20.6217 29.1927 20.6217ZM32.1121 11.89H25.9017C26.1937 9.89947 27.3614 8.78479 29.0865 8.78479C30.9178 8.78479 31.9794 9.76677 32.1121 11.89Z" fill="#0D82AE"/>
<path d="M45.3459 20.6217C49.1677 20.6217 51.5297 18.9497 51.9809 15.9506H48.3449C48.1061 17.1184 47.2568 17.8881 45.4521 17.8881C43.3288 17.8881 42.108 16.5876 42.0018 14.2521H52.0075V13.1904C52.0075 10.7222 51.2113 8.94403 49.9639 7.8028C48.7165 6.66157 47.0445 6.13077 45.2397 6.13077C43.2227 6.13077 41.4445 6.84736 40.1706 8.09474C38.8701 9.36867 38.1004 11.1469 38.1004 13.3497V13.562C38.1004 15.7914 38.8701 17.543 40.1706 18.7373C41.4445 19.9847 43.2492 20.6217 45.3459 20.6217ZM48.2653 11.89H42.0549C42.3469 9.89947 43.5146 8.78479 45.2397 8.78479C47.071 8.78479 48.1326 9.76677 48.2653 11.89Z" fill="#0D82AE"/>
<path d="M79.0797 17.7023C76.8768 17.7023 75.6825 16.1099 75.6825 13.4559V13.2435C75.6825 10.5895 76.9564 9.05019 79.0797 9.05019C81.2294 9.05019 82.4768 10.6426 82.4768 13.2966V13.4824C82.4768 16.1364 81.2294 17.7023 79.0797 17.7023ZM79.0531 20.6217C81.1498 20.6217 82.9811 19.9316 84.2815 18.6843C85.582 17.4369 86.3782 15.6587 86.3782 13.4559V13.2435C86.3782 11.0938 85.582 9.31559 84.3081 8.0682C83.0076 6.82082 81.1763 6.13077 79.0797 6.13077C76.983 6.13077 75.1517 6.84736 73.8512 8.09474C72.5508 9.34213 71.7546 11.1734 71.7546 13.3232V13.5355C71.7546 15.6852 72.5508 17.49 73.8512 18.6843C75.1517 19.9316 76.9564 20.6217 79.0531 20.6217Z" fill="#0D82AE"/>
<path d="M89.5346 6.44925V20.3297H93.3829V12.1288C93.3829 10.218 94.5772 9.28905 96.0635 9.28905C97.417 9.28905 98.2398 10.0587 98.2398 11.8634V20.3297H102.062V12.1288C102.062 10.218 103.256 9.28905 104.742 9.28905C106.122 9.28905 106.918 10.0587 106.918 11.8634V20.3297H110.74V11.4388C110.74 9.60753 110.262 8.25398 109.44 7.37816C108.59 6.52887 107.449 6.13077 106.175 6.13077C104.397 6.13077 102.645 6.84736 101.504 8.54593C100.841 6.8739 99.4606 6.13077 97.6293 6.13077C95.5327 6.13077 94.0995 7.272 93.3829 8.57246V6.44925H89.5346Z" fill="#0D82AE"/>
<path d="M60.3048 20.6217C62.3484 20.6217 64.0469 19.4274 64.7635 18.0208V20.3297H68.5853C68.5853 12.4527 68.5853 8.03631 68.5853 0.159241H64.7635V8.51938C63.9939 7.11276 62.6138 6.13077 60.3844 6.13077C58.6593 6.13077 57.12 6.79428 56.0318 8.04166C54.9437 9.28905 54.2802 11.1203 54.2802 13.3762V13.5886C54.2802 15.8975 54.9437 17.6492 56.0318 18.817C57.12 20.0113 58.6062 20.6217 60.3048 20.6217ZM61.446 17.6227C59.5351 17.6227 58.2081 16.2691 58.2081 13.5089V13.2966C58.2081 10.5364 59.4024 9.07673 61.5522 9.07673C63.6754 9.07673 64.8697 10.4834 64.8697 13.2435V13.4559C64.8697 16.2956 63.4631 17.6227 61.446 17.6227Z" fill="#F58220"/>
</g>
<defs>
<clipPath id="clip0_145_1331">
<rect width="111" height="21" fill="white"/>
</clipPath>
</defs>
</svg>
