<svg width="111" height="21" viewBox="0 0 111 21" fill="none" xmlns="http://www.w3.org/2000/svg">
<path d="M1.83127 9.18289L1.83127 20.3297H5.65305L5.65305 9.18289L8.67863 9.18289V6.44925H5.65305L5.65305 4.75069C5.65305 3.68908 6.13077 2.91942 7.37816 2.91942C7.9355 2.91942 8.38668 3.02558 8.78479 3.15828V0.265401C8.17436 0.079621 7.61702 0 6.79428 0C3.68908 0 1.83127 1.59241 1.83127 4.85685L1.83127 6.44925H0L0 9.18289H1.83127Z" fill="#0D82AE"/>
<path d="M11.6196 6.44925L11.6196 20.3297L15.4679 20.3297V13.3762C15.4679 10.7222 17.0869 9.79331 19.9532 9.81985L19.9532 6.23693C17.6973 6.26347 16.3437 7.21892 15.4679 9.10327V6.44925H11.6196Z" fill="#0D82AE"/>
<path d="M29.1927 20.6217C33.0145 20.6217 35.3765 18.9497 35.8277 15.9506H32.1917C31.9529 17.1184 31.1036 17.8881 29.2989 17.8881C27.1756 17.8881 25.9548 16.5876 25.8486 14.2521H35.8543V13.1904C35.8543 10.7222 35.0581 8.94403 33.8107 7.8028C32.5633 6.66157 30.8913 6.13077 29.0865 6.13077C27.0695 6.13077 25.2913 6.84736 24.0174 8.09474C22.7169 9.36867 21.9472 11.1469 21.9472 13.3497V13.562C21.9472 15.7914 22.7169 17.543 24.0174 18.7373C25.2913 19.9847 27.096 20.6217 29.1927 20.6217ZM32.1121 11.89H25.9017C26.1937 9.89947 27.3614 8.78479 29.0865 8.78479C30.9178 8.78479 31.9794 9.76677 32.1121 11.89Z" fill="#0D82AE"/>
<path d="M45.3459 20.6217C49.1677 20.6217 51.5297 18.9497 51.9809 15.9506L48.3449 15.9506C48.1061 17.1184 47.2568 17.8881 45.4521 17.8881C43.3288 17.8881 42.108 16.5876 42.0018 14.2521L52.0075 14.2521V13.1904C52.0075 10.7222 51.2113 8.94403 49.9639 7.8028C48.7165 6.66157 47.0445 6.13077 45.2397 6.13077C43.2227 6.13077 41.4445 6.84736 40.1706 8.09474C38.8701 9.36867 38.1004 11.1469 38.1004 13.3497V13.562C38.1004 15.7914 38.8701 17.543 40.1706 18.7373C41.4445 19.9847 43.2492 20.6217 45.3459 20.6217ZM48.2653 11.89H42.0549C42.3469 9.89947 43.5146 8.78479 45.2397 8.78479C47.071 8.78479 48.1326 9.76677 48.2653 11.89Z" fill="#0D82AE"/>
<path d="M79.0797 17.7023C76.8768 17.7023 75.6825 16.1099 75.6825 13.4559V13.2435C75.6825 10.5895 76.9564 9.05019 79.0797 9.05019C81.2294 9.05019 82.4768 10.6426 82.4768 13.2966V13.4824C82.4768 16.1364 81.2294 17.7023 79.0797 17.7023ZM79.0531 20.6217C81.1498 20.6217 82.9811 19.9316 84.2815 18.6843C85.582 17.4369 86.3782 15.6587 86.3782 13.4559V13.2435C86.3782 11.0938 85.582 9.31559 84.3081 8.0682C83.0076 6.82082 81.1763 6.13077 79.0797 6.13077C76.983 6.13077 75.1517 6.84736 73.8512 8.09474C72.5508 9.34213 71.7546 11.1734 71.7546 13.3232V13.5355C71.7546 15.6852 72.5508 17.49 73.8512 18.6843C75.1517 19.9316 76.9564 20.6217 79.0531 20.6217Z" fill="#0D82AE"/>
<path d="M89.5346 6.44925V20.3297H93.3829V12.1288C93.3829 10.218 94.5772 9.28905 96.0635 9.28905C97.417 9.28905 98.2398 10.0587 98.2398 11.8634V20.3297H102.062V12.1288C102.062 10.218 103.256 9.28905 104.742 9.28905C106.122 9.28905 106.918 10.0587 106.918 11.8634V20.3297H110.74V11.4388C110.74 9.60753 110.262 8.25398 109.44 7.37816C108.59 6.52887 107.449 6.13077 106.175 6.13077C104.397 6.13077 102.645 6.84736 101.504 8.54593C100.841 6.8739 99.4606 6.13077 97.6293 6.13077C95.5327 6.13077 94.0995 7.272 93.3829 8.57246V6.44925L89.5346 6.44925Z" fill="#0D82AE"/>
<path d="M60.3048 20.6217C62.3484 20.6217 64.0469 19.4274 64.7635 18.0208V20.3297H68.5853C68.5853 12.4527 68.5853 8.03631 68.5853 0.15924L64.7635 0.15924V8.51938C63.9939 7.11276 62.6138 6.13077 60.3844 6.13077C58.6593 6.13077 57.12 6.79428 56.0318 8.04166C54.9437 9.28905 54.2802 11.1203 54.2802 13.3762V13.5886C54.2802 15.8975 54.9437 17.6492 56.0318 18.817C57.12 20.0113 58.6062 20.6217 60.3048 20.6217ZM61.446 17.6227C59.5351 17.6227 58.2081 16.2691 58.2081 13.5089V13.2966C58.2081 10.5364 59.4024 9.07673 61.5522 9.07673C63.6754 9.07673 64.8697 10.4834 64.8697 13.2435V13.4559C64.8697 16.2956 63.4631 17.6227 61.446 17.6227Z" fill="#f58220"/>
</svg>
